<svg width="24" height="24" viewBox="0 0 24 24" fill="none" xmlns="http://www.w3.org/2000/svg">
<circle cx="12" cy="12" r="12" fill="white"/>
<path d="M11.9981 19.5917C11.8932 19.5914 11.7914 19.5575 11.7086 19.4955C9.07001 17.5161 7.25243 15.8117 5.98059 14.1302C4.35757 11.9814 3.98741 9.99746 4.87959 8.23348C5.51551 6.97349 7.34259 5.94259 9.47814 6.54281C10.4963 6.82676 11.3847 7.43569 11.9981 8.27013C12.6115 7.43569 13.4998 6.82676 14.518 6.54281C16.6488 5.95176 18.4807 6.97349 19.1166 8.23348C20.0088 9.99746 19.6386 11.9814 18.0156 14.1302C16.7437 15.8117 14.9262 17.5161 12.2876 19.4955C12.2047 19.5575 12.1029 19.5914 11.9981 19.5917V19.5917ZM8.26325 7.28963C7.75511 7.27054 7.25118 7.38541 6.80555 7.62193C6.35992 7.85844 5.98942 8.20765 5.73381 8.63209C4.99824 10.0891 5.33043 11.711 6.74939 13.585C8.25735 15.4629 10.0231 17.1337 11.9981 18.5516C13.9727 17.1352 15.7385 15.4658 17.2468 13.5896C18.6705 11.711 18.9979 10.0891 18.2624 8.63667C17.7878 7.72032 16.3641 6.99182 14.779 7.4225C14.2708 7.56752 13.7996 7.81366 13.3959 8.14508C12.9921 8.47651 12.6647 8.88588 12.4347 9.34685C12.3989 9.43088 12.3381 9.50276 12.2599 9.55334C12.1818 9.60392 12.0898 9.63093 11.9957 9.63093C11.9016 9.63093 11.8096 9.60392 11.7315 9.55334C11.6533 9.50276 11.5925 9.43088 11.5567 9.34685C11.3285 8.88473 11.0016 8.4744 10.5976 8.14277C10.1936 7.81114 9.72152 7.56568 9.21238 7.4225C8.9039 7.336 8.58447 7.29128 8.26325 7.28963V7.28963Z" fill="#E80A1F"/>
</svg>
