<svg width="13" height="13" viewBox="0 0 13 13" fill="none" xmlns="http://www.w3.org/2000/svg">
<circle cx="6.5" cy="6.5" r="6" fill="#E80A1F" stroke="white"/>
<path d="M8.47656 9H4.65234V8.34766L6.54688 6.28125C6.82031 5.97656 7.01432 5.72266 7.12891 5.51953C7.24609 5.3138 7.30469 5.10807 7.30469 4.90234C7.30469 4.63151 7.22786 4.41276 7.07422 4.24609C6.92318 4.07943 6.71875 3.99609 6.46094 3.99609C6.15365 3.99609 5.91536 4.08984 5.74609 4.27734C5.57682 4.46484 5.49219 4.72135 5.49219 5.04688H4.54297C4.54297 4.70052 4.62109 4.38932 4.77734 4.11328C4.9362 3.83464 5.16146 3.61849 5.45312 3.46484C5.7474 3.3112 6.08594 3.23438 6.46875 3.23438C7.02083 3.23438 7.45573 3.3737 7.77344 3.65234C8.09375 3.92839 8.25391 4.3112 8.25391 4.80078C8.25391 5.08464 8.17318 5.38281 8.01172 5.69531C7.85286 6.00521 7.59115 6.35807 7.22656 6.75391L5.83594 8.24219H8.47656V9Z" fill="white"/>
</svg>
