<svg width="63" height="63" viewBox="0 0 63 63" fill="none" xmlns="http://www.w3.org/2000/svg">
<path d="M31.1491 2.51953C24.7922 2.51953 19.7719 4.39477 16.3884 7.86223C13.005 11.3297 11.3386 16.2906 11.3386 22.1701C11.3386 24.6042 12.4289 29.296 13.3123 32.0754C12.9394 32.3909 12.5834 32.5922 12.2196 33.1459C11.6132 34.0688 11.1628 35.3849 11.346 36.9431C11.3468 36.9431 11.3476 36.9431 11.3484 36.9431C11.6462 39.4699 12.4408 41.1797 13.2138 42.2587C13.7664 43.0301 14.0897 43.1854 14.3877 43.3982C14.781 45.6324 16.1955 48.2606 18.303 50.9483C20.5308 53.7894 23.4458 56.513 26.6505 58.0358C27.8052 59.4801 29.5134 60.4795 31.4986 60.4795C33.4827 60.4795 35.1892 59.4808 36.3442 58.0383C39.5411 56.5134 42.4391 53.7836 44.6523 50.9409C46.7422 48.2566 48.1421 45.6326 48.5357 43.4055C48.8425 43.1937 49.1592 43.0499 49.7144 42.2932C50.5 41.2227 51.3081 39.5172 51.6069 36.9874C51.7907 35.424 51.3302 34.1018 50.7185 33.1705C50.3503 32.61 49.9903 32.4009 49.6135 32.0803C50.4978 29.2701 51.6586 24.93 51.6586 20.1595C51.6586 17.967 51.2043 14.9723 49.7218 12.3633C48.3325 9.91819 45.8237 7.90737 42.2652 7.65551C40.6525 5.19326 37.1524 2.51953 31.1491 2.51953ZM31.1491 5.03953C36.8136 5.03953 39.5178 7.67396 40.4712 9.42246C40.5796 9.62144 40.7397 9.78749 40.9346 9.90313C41.1295 10.0188 41.352 10.0797 41.5786 10.0795C44.6569 10.0795 46.3596 11.5502 47.5291 13.6085C48.6987 15.6669 49.1386 18.3415 49.1386 20.1595C49.1386 24.8306 47.8755 29.4169 47.0197 32.0385C46.9216 32.3414 46.9418 32.6702 47.0763 32.9589C45.709 34.1674 44.2223 35.2339 42.7155 36.1827L42.6442 36.1335C42.6081 36.1851 42.5808 36.2391 42.5457 36.291C41.4848 36.9507 40.4181 37.5642 39.3736 38.0727C36.3511 39.5439 33.4864 40.3195 31.8899 40.3195C30.1605 40.3195 27.1678 39.575 24.005 38.1613C21.2395 36.9252 18.3087 35.1943 15.7732 33.0967C15.8727 32.9375 15.9354 32.7581 15.9567 32.5717C15.9779 32.3852 15.9573 32.1963 15.8962 32.0188C15.1337 29.82 13.8586 23.7835 13.8586 22.1701C13.8586 16.7613 15.3567 12.5277 18.1923 9.6218C21.0279 6.71585 25.2802 5.03953 31.1491 5.03953ZM40.8821 14.6323C40.8649 14.6336 40.8477 14.6352 40.8305 14.6372C40.8107 14.6392 40.791 14.6416 40.7714 14.6446C40.7665 14.6454 40.7615 14.6462 40.7566 14.647C40.5368 14.6789 40.3293 14.7682 40.1551 14.9061C39.981 15.044 39.8463 15.2254 39.7649 15.4321C39.706 15.5491 39.1963 16.5363 37.7937 17.6887C36.3061 18.9109 33.9497 20.1595 30.2386 20.1595C27.8762 20.1595 24.9346 20.1766 22.3833 21.0996C21.1076 21.5611 19.9049 22.2736 19.0241 23.3809C18.1433 24.4882 17.6386 25.9674 17.6386 27.7195C17.6362 27.8865 17.6671 28.0523 17.7293 28.2072C17.7916 28.3621 17.884 28.5032 18.0013 28.6221C18.1185 28.741 18.2582 28.8354 18.4122 28.8998C18.5663 28.9643 18.7316 28.9975 18.8986 28.9975C19.0656 28.9975 19.2309 28.9643 19.3849 28.8998C19.539 28.8354 19.6787 28.741 19.7959 28.6221C19.9131 28.5032 20.0056 28.3621 20.0678 28.2072C20.1301 28.0523 20.1609 27.8865 20.1586 27.7195C20.1586 26.4262 20.4847 25.5959 20.9978 24.951C21.5108 24.306 22.2663 23.8216 23.2397 23.4695C25.1865 22.7652 27.9137 22.6795 30.2386 22.6795C34.5285 22.6795 37.5261 21.1719 39.3933 19.6378C40.0347 19.1108 40.5106 18.5933 40.9141 18.112C42.1342 20.0694 44.0986 23.8089 44.0986 27.7195C44.0962 27.8865 44.1271 28.0523 44.1893 28.2072C44.2516 28.3621 44.344 28.5032 44.4613 28.6221C44.5785 28.741 44.7182 28.8354 44.8722 28.8998C45.0263 28.9643 45.1916 28.9975 45.3586 28.9975C45.5256 28.9975 45.6909 28.9643 45.8449 28.8998C45.999 28.8354 46.1387 28.741 46.2559 28.6221C46.3731 28.5032 46.4656 28.3621 46.5278 28.2072C46.5901 28.0523 46.6209 27.8865 46.6186 27.7195C46.6186 21.2408 42.526 15.8899 42.088 15.3336C41.9784 15.111 41.8055 14.9256 41.591 14.8009C41.3765 14.6761 41.1299 14.6174 40.8821 14.6323V14.6323ZM24.5686 32.7595C24.0673 32.7595 23.5866 32.9587 23.2322 33.3131C22.8777 33.6675 22.6786 34.1483 22.6786 34.6495C22.6786 35.1508 22.8777 35.6315 23.2322 35.986C23.5866 36.3404 24.0673 36.5395 24.5686 36.5395C25.0698 36.5395 25.5506 36.3404 25.905 35.986C26.2595 35.6315 26.4586 35.1508 26.4586 34.6495C26.4586 34.1483 26.2595 33.6675 25.905 33.3131C25.5506 32.9587 25.0698 32.7595 24.5686 32.7595ZM38.4286 32.7595C37.9273 32.7595 37.4466 32.9587 37.0922 33.3131C36.7377 33.6675 36.5386 34.1483 36.5386 34.6495C36.5386 35.1508 36.7377 35.6315 37.0922 35.986C37.4466 36.3404 37.9273 36.5395 38.4286 36.5395C38.9298 36.5395 39.4106 36.3404 39.765 35.986C40.1195 35.6315 40.3186 35.1508 40.3186 34.6495C40.3186 34.1483 40.1195 33.6675 39.765 33.3131C39.4106 32.9587 38.9298 32.7595 38.4286 32.7595ZM48.767 34.8267C49.03 35.3139 49.1974 35.9014 49.1041 36.6946C48.8508 38.8351 48.2094 40.086 47.6842 40.8019C47.1587 41.518 46.8696 41.6361 46.8696 41.6361C46.6868 41.7327 46.5306 41.8728 46.4147 42.0441C46.2988 42.2153 46.2268 42.4124 46.2051 42.618C46.0852 43.7607 44.9116 46.2748 43.1314 48.7286C42.6074 45.2087 42.445 41.3063 44.3717 38.1145C45.8852 37.142 47.3764 36.0597 48.767 34.8267ZM14.085 34.9645C15.2925 35.9716 16.5699 36.8936 17.8773 37.7232C19.9589 40.8238 19.9301 44.6879 19.4523 48.2142C17.8692 45.9288 16.8313 43.6759 16.7207 42.618C16.6991 42.4165 16.6292 42.2231 16.517 42.0543C16.4047 41.8855 16.2534 41.7463 16.0759 41.6484C16.0759 41.6484 15.787 41.5224 15.2638 40.792C14.7406 40.0617 14.1016 38.7931 13.8487 36.6478H13.8512C13.7684 35.9437 13.8818 35.4072 14.085 34.9645ZM21.6032 39.788C22.0618 40.0143 22.5229 40.2596 22.9764 40.4623C26.3599 41.9746 29.5028 42.8395 31.8899 42.8395C34.2132 42.8395 37.229 41.9185 40.4785 40.3368C40.5754 40.2896 40.6742 40.2276 40.7714 40.1793C39.7091 44.1175 40.4253 48.2016 41.0052 51.3347C39.2305 53.2302 37.171 54.8984 35.1555 55.8357C34.9468 55.9336 34.7689 56.0868 34.6412 56.2787C33.9614 57.2936 32.8186 57.9595 31.4986 57.9595C30.1795 57.9595 29.0382 57.2952 28.3584 56.2812C28.2301 56.0889 28.0513 55.9357 27.8416 55.8382C25.66 54.8289 23.4425 52.9605 21.5662 50.8819C22.1475 47.6995 22.771 43.6657 21.6032 39.788Z" fill="#E80A1F"/>
</svg>
