<svg width="70" height="30" viewBox="0 0 70 30" fill="none" xmlns="http://www.w3.org/2000/svg">
<rect width="70" height="30" fill="#E80A1F"/>
<path d="M27.2612 19C27.0559 18.6547 26.8179 18.2673 26.5472 17.838C26.2859 17.4087 26.0012 16.9653 25.6932 16.508C25.3852 16.0413 25.0632 15.57 24.7272 15.094C24.4006 14.618 24.0739 14.1607 23.7472 13.722C23.4206 13.274 23.1032 12.854 22.7952 12.462C22.4872 12.07 22.2026 11.7247 21.9412 11.426L21.9412 19L20.6112 19L20.6112 9.298L21.6892 9.298C22.1279 9.76467 22.5946 10.3107 23.0892 10.936C23.5932 11.552 24.0879 12.1913 24.5732 12.854C25.0679 13.5073 25.5299 14.1513 25.9592 14.786C26.3979 15.4207 26.7666 15.9853 27.0652 16.48L27.0652 9.298L28.3952 9.298L28.3952 19L27.2612 19ZM30.7968 19L30.7968 9.298L36.7188 9.298L36.7188 10.46L32.1548 10.46L32.1548 13.344L36.2148 13.344L36.2148 14.478L32.1548 14.478L32.1548 17.838L37.0688 17.838L37.0688 19L30.7968 19ZM44.1008 12.42C43.7088 13.6707 43.3122 14.828 42.9108 15.892C42.5095 16.956 42.1082 17.992 41.7068 19L40.3488 19C39.8542 17.572 39.4155 16.0647 39.0328 14.478C38.6595 12.8913 38.3095 11.1647 37.9828 9.298L39.4108 9.298C39.5415 10.026 39.6768 10.754 39.8168 11.482C39.9568 12.21 40.1015 12.9193 40.2508 13.61C40.4002 14.2913 40.5495 14.9447 40.6988 15.57C40.8482 16.1953 41.0022 16.774 41.1608 17.306C41.5342 16.326 41.9308 15.2527 42.3508 14.086C42.7708 12.91 43.1628 11.6967 43.5268 10.446L44.7028 10.446C45.0668 11.6967 45.4635 12.91 45.8928 14.086C46.3222 15.2527 46.7235 16.326 47.0968 17.306C47.2462 16.7833 47.3955 16.2093 47.5448 15.584C47.6942 14.9587 47.8388 14.3053 47.9788 13.624C48.1282 12.9333 48.2728 12.224 48.4128 11.496C48.5528 10.7587 48.6882 10.026 48.8188 9.298L50.2048 9.298C49.8688 11.1647 49.5095 12.8913 49.1268 14.478C48.7535 16.0647 48.3242 17.572 47.8388 19L46.4808 19C46.0702 17.992 45.6688 16.956 45.2768 15.892C44.8848 14.828 44.4928 13.6707 44.1008 12.42Z" fill="white"/>
</svg>
