<svg width="25" height="25" viewBox="0 0 25 25" fill="none" xmlns="http://www.w3.org/2000/svg">
<path d="M5.92051 1.49436C5.53574 1.46311 5.10801 1.57444 4.71348 1.85179C4.36582 2.09397 3.61582 2.68968 2.91465 3.36351C2.56504 3.69944 2.23106 4.04905 1.97324 4.3928C1.71348 4.73655 1.48692 5.05101 1.50059 5.50804C1.51426 5.91819 1.55528 7.13108 2.42832 8.99046C3.30137 10.8479 4.99473 13.3967 8.29746 16.7014C11.6022 20.0061 14.151 21.6994 16.0084 22.5725C17.8658 23.4455 19.0807 23.4866 19.4908 23.5002C19.9459 23.5139 20.2604 23.2873 20.6041 23.0276C20.9479 22.7678 21.2975 22.4358 21.6334 22.0862C22.3053 21.385 22.901 20.635 23.1432 20.2873C23.6959 19.5002 23.6041 18.5705 22.9889 18.1389C22.6022 17.8674 19.0455 15.5002 18.5104 15.1721C17.9674 14.8401 17.3424 14.9905 16.7838 15.2854C16.3443 15.5178 15.1549 16.1994 14.815 16.3948C14.5592 16.2326 13.5885 15.5862 11.5006 13.4983C9.41074 11.4104 8.76621 10.4397 8.6041 10.1838C8.79942 9.84397 9.4791 8.66038 9.71348 8.21311C10.0064 7.65647 10.1705 7.02561 9.8209 6.47874C9.67442 6.24632 9.0084 5.23265 8.33653 4.21507C7.6627 3.19749 7.02403 2.23265 6.85801 2.00218V2.00022C6.64121 1.7014 6.30332 1.52561 5.92051 1.49436ZM5.82871 2.51585C5.96543 2.53343 6.04746 2.58811 6.04746 2.58811C6.12754 2.69944 6.82871 3.75022 7.50059 4.76585C8.17246 5.78343 8.85801 6.8264 8.97715 7.01585C8.99668 7.04515 9.02403 7.37718 8.82871 7.74632V7.74827C8.60801 8.16819 7.57871 9.96702 7.57871 9.96702L7.43614 10.219L7.58262 10.469C7.58262 10.469 8.3502 11.7639 10.7916 14.2053C13.235 16.6467 14.5299 17.4162 14.5299 17.4162L14.7799 17.5627L15.0318 17.4201C15.0318 17.4201 16.8268 16.3928 17.2506 16.1701C17.6197 15.9768 17.9518 16.0022 17.9908 16.0256C18.3365 16.2385 22.1783 18.7912 22.4147 18.9573C22.4225 18.9631 22.6314 19.2795 22.3268 19.7131H22.3248C22.1412 19.9768 21.5397 20.7405 20.9127 21.3928C20.5982 21.719 20.276 22.0237 20.0025 22.2287C19.7291 22.4338 19.485 22.4983 19.524 22.5002C19.0982 22.4866 18.1588 22.4768 16.4342 21.6662C14.7096 20.8576 12.2486 19.2385 9.00449 15.9924C5.76231 12.7502 4.14317 10.2893 3.33262 8.56272C2.52403 6.83811 2.51426 5.89866 2.50059 5.47483C2.50254 5.5139 2.567 5.2678 2.77207 4.99436C2.97715 4.72093 3.27989 4.39671 3.60606 4.08226C4.26035 3.4553 5.02207 2.85374 5.28575 2.67015V2.6721C5.50254 2.51976 5.69199 2.50022 5.82871 2.51585Z" fill="black"/>
</svg>
