<svg width="18" height="18" viewBox="0 0 18 18" fill="none" xmlns="http://www.w3.org/2000/svg">
<g clip-path="url(#clip0_7:194)">
<path d="M3.67327 17.4963C3.60127 17.4963 3.52927 17.4603 3.45727 17.4243C3.34927 17.3523 3.27727 17.1723 3.31327 17.0283L4.89727 11.1244L0.145266 7.27235C0.00126573 7.20035 -0.0347343 7.02035 0.00126572 6.87635C0.0372657 6.73235 0.181266 6.62435 0.325266 6.62435L6.44527 6.30035L8.64127 0.576352C8.71327 0.468352 8.85727 0.360352 9.00127 0.360352C9.14527 0.360352 9.28927 0.468352 9.32527 0.576352L11.5213 6.30035L17.6413 6.62435C17.7853 6.62435 17.9293 6.73235 17.9653 6.87635C18.0013 7.02035 17.9653 7.16435 17.8573 7.27235L13.1053 11.1244L14.6893 17.0283C14.7253 17.1723 14.6893 17.3163 14.5453 17.4243C14.4373 17.4963 14.2573 17.5323 14.1493 17.4243L9.00127 14.1124L3.85327 17.4243C3.78127 17.4963 3.74527 17.4963 3.67327 17.4963Z" fill="#E80A1F"/>
</g>
<defs>
<clipPath id="clip0_7:194">
<rect width="18" height="18" fill="white"/>
</clipPath>
</defs>
</svg>
